<mxfile host="app.diagrams.net" modified="2024-05-03T07:16:35.974Z" agent="Mozilla/5.0 (Windows NT 10.0; Win64; x64) AppleWebKit/537.36 (KHTML, like Gecko) Chrome/124.0.0.0 Safari/537.36 Edg/124.0.0.0" etag="FkEEeUYt0AektMjlvIMx" version="24.3.1" type="github">
  <diagram id="prtHgNgQTEPvFCAcTncT" name="Page-1">
    <mxGraphModel dx="1172" dy="689" grid="0" gridSize="10" guides="1" tooltips="1" connect="1" arrows="1" fold="1" page="0" pageScale="1" pageWidth="827" pageHeight="1169" background="#FFFFFF" math="0" shadow="0">
      <root>
        <mxCell id="0" />
        <mxCell id="1" parent="0" />
        <mxCell id="GGkN6VPuzTJhWFEjnrH3-1" value="" style="rounded=0;whiteSpace=wrap;html=1;fontSize=14;" vertex="1" parent="1">
          <mxGeometry x="47" y="20" width="666" height="123" as="geometry" />
        </mxCell>
        <mxCell id="GGkN6VPuzTJhWFEjnrH3-2" value="客户端" style="rounded=0;whiteSpace=wrap;html=1;fontSize=14;" vertex="1" parent="1">
          <mxGeometry x="47" y="20" width="90" height="40" as="geometry" />
        </mxCell>
        <mxCell id="GGkN6VPuzTJhWFEjnrH3-3" value="" style="shape=mxgraph.arrows.two_way_arrow_vertical;html=1;verticalLabelPosition=bottom;verticalAlign=top;strokeWidth=2;strokeColor=#000000;fontSize=14;" vertex="1" parent="1">
          <mxGeometry x="356" y="150" width="37" height="64" as="geometry" />
        </mxCell>
        <mxCell id="GGkN6VPuzTJhWFEjnrH3-4" value="" style="rounded=0;whiteSpace=wrap;html=1;fontSize=14;" vertex="1" parent="1">
          <mxGeometry x="47" y="224" width="666" height="201" as="geometry" />
        </mxCell>
        <mxCell id="GGkN6VPuzTJhWFEjnrH3-5" value="主要模块" style="rounded=0;whiteSpace=wrap;html=1;fontSize=14;" vertex="1" parent="1">
          <mxGeometry x="47" y="224" width="90" height="40" as="geometry" />
        </mxCell>
        <mxCell id="GGkN6VPuzTJhWFEjnrH3-6" value="" style="rounded=0;whiteSpace=wrap;html=1;fontSize=14;" vertex="1" parent="1">
          <mxGeometry x="47" y="508" width="661" height="120" as="geometry" />
        </mxCell>
        <mxCell id="GGkN6VPuzTJhWFEjnrH3-7" value="" style="shape=mxgraph.arrows.two_way_arrow_vertical;html=1;verticalLabelPosition=bottom;verticalAlign=top;strokeWidth=2;strokeColor=#000000;fontSize=14;" vertex="1" parent="1">
          <mxGeometry x="356" y="435" width="37" height="64" as="geometry" />
        </mxCell>
        <mxCell id="GGkN6VPuzTJhWFEjnrH3-8" value="数据层" style="rounded=0;whiteSpace=wrap;html=1;fontSize=14;" vertex="1" parent="1">
          <mxGeometry x="47" y="508" width="90" height="40" as="geometry" />
        </mxCell>
        <mxCell id="GGkN6VPuzTJhWFEjnrH3-9" value="Redis" style="rounded=0;whiteSpace=wrap;html=1;fontSize=14;" vertex="1" parent="1">
          <mxGeometry x="459" y="567" width="90" height="40" as="geometry" />
        </mxCell>
        <mxCell id="GGkN6VPuzTJhWFEjnrH3-10" value="MySQL" style="rounded=0;whiteSpace=wrap;html=1;fontSize=14;" vertex="1" parent="1">
          <mxGeometry x="330" y="567" width="90" height="40" as="geometry" />
        </mxCell>
        <mxCell id="GGkN6VPuzTJhWFEjnrH3-11" value="SQLite" style="rounded=0;whiteSpace=wrap;html=1;fontSize=14;" vertex="1" parent="1">
          <mxGeometry x="201" y="567" width="90" height="40" as="geometry" />
        </mxCell>
        <mxCell id="GGkN6VPuzTJhWFEjnrH3-12" value="App前端" style="rounded=0;whiteSpace=wrap;html=1;fontSize=14;" vertex="1" parent="1">
          <mxGeometry x="227" y="62" width="90" height="40" as="geometry" />
        </mxCell>
        <mxCell id="GGkN6VPuzTJhWFEjnrH3-13" value="Web后台管理系统" style="rounded=0;whiteSpace=wrap;html=1;fontSize=14;" vertex="1" parent="1">
          <mxGeometry x="397" y="64" width="156" height="36" as="geometry" />
        </mxCell>
        <mxCell id="GGkN6VPuzTJhWFEjnrH3-14" value="阅读模块" style="rounded=0;whiteSpace=wrap;html=1;fontSize=14;" vertex="1" parent="1">
          <mxGeometry x="137" y="290" width="90" height="40" as="geometry" />
        </mxCell>
        <mxCell id="GGkN6VPuzTJhWFEjnrH3-15" value="收藏模块" style="rounded=0;whiteSpace=wrap;html=1;fontSize=14;" vertex="1" parent="1">
          <mxGeometry x="576" y="290" width="90" height="40" as="geometry" />
        </mxCell>
        <mxCell id="GGkN6VPuzTJhWFEjnrH3-16" value="复习模块" style="rounded=0;whiteSpace=wrap;html=1;fontSize=14;" vertex="1" parent="1">
          <mxGeometry x="356" y="290" width="90" height="40" as="geometry" />
        </mxCell>
        <mxCell id="GGkN6VPuzTJhWFEjnrH3-17" value="视频模块" style="rounded=0;whiteSpace=wrap;html=1;fontSize=14;" vertex="1" parent="1">
          <mxGeometry x="467" y="290" width="90" height="40" as="geometry" />
        </mxCell>
        <mxCell id="GGkN6VPuzTJhWFEjnrH3-18" value="" style="rounded=0;whiteSpace=wrap;html=1;fontSize=14;" vertex="1" parent="1">
          <mxGeometry x="752" y="224" width="118" height="204" as="geometry" />
        </mxCell>
        <mxCell id="GGkN6VPuzTJhWFEjnrH3-19" value="第三方服务" style="rounded=0;whiteSpace=wrap;html=1;fontSize=14;" vertex="1" parent="1">
          <mxGeometry x="752" y="224" width="84" height="40" as="geometry" />
        </mxCell>
        <mxCell id="GGkN6VPuzTJhWFEjnrH3-20" value="阿里云OSS" style="rounded=0;whiteSpace=wrap;html=1;fontSize=14;" vertex="1" parent="1">
          <mxGeometry x="770.5" y="291" width="81" height="39" as="geometry" />
        </mxCell>
        <mxCell id="GGkN6VPuzTJhWFEjnrH3-21" value="听力模块" style="rounded=0;whiteSpace=wrap;html=1;fontSize=14;" vertex="1" parent="1">
          <mxGeometry x="245" y="291" width="90" height="40" as="geometry" />
        </mxCell>
        <mxCell id="GGkN6VPuzTJhWFEjnrH3-22" value="查词模块" style="rounded=0;whiteSpace=wrap;html=1;fontSize=14;" vertex="1" parent="1">
          <mxGeometry x="286" y="358" width="90" height="40" as="geometry" />
        </mxCell>
        <mxCell id="GGkN6VPuzTJhWFEjnrH3-24" value="管理模块" style="rounded=0;whiteSpace=wrap;html=1;fontSize=14;" vertex="1" parent="1">
          <mxGeometry x="401" y="358" width="90" height="40" as="geometry" />
        </mxCell>
      </root>
    </mxGraphModel>
  </diagram>
</mxfile>
